<?xml version="1.0" encoding="UTF-8" standalone="no"?>
<svg xmlns="http://www.w3.org/2000/svg" width="800" height="500" viewBox="0 0 800 500">
  <style>
    .box {
      fill: white;
      stroke: #4361ee;
      stroke-width: 2;
      rx: 10;
      ry: 10;
    }
    .process-box {
      fill: #f3f4f6;
      stroke: #4361ee;
      stroke-width: 2;
      rx: 10;
      ry: 10;
    }
    .database {
      fill: #4cc9f0;
      opacity: 0.2;
      stroke: #4cc9f0;
      stroke-width: 2;
      rx: 10;
      ry: 10;
    }
    .llm {
      fill: #f72585;
      opacity: 0.2;
      stroke: #f72585;
      stroke-width: 2;
      rx: 10;
      ry: 10;
    }
    .arrow {
      fill: none;
      stroke: #6b7280;
      stroke-width: 2;
      marker-end: url(#arrowhead);
    }
    .label {
      font-family: 'Inter', sans-serif;
      font-size: 14px;
      font-weight: 500;
      text-anchor: middle;
      dominant-baseline: middle;
    }
    .title {
      font-family: 'Inter', sans-serif;
      font-size: 16px;
      font-weight: 600;
      text-anchor: middle;
      dominant-baseline: middle;
      fill: #1f2937;
    }
    .small-label {
      font-family: 'Inter', sans-serif;
      font-size: 12px;
      font-weight: 400;
      text-anchor: middle;
      dominant-baseline: middle;
      fill: #6b7280;
    }
  </style>
  
  <!-- Arrow marker definition -->
  <defs>
    <marker id="arrowhead" markerWidth="10" markerHeight="7" refX="9" refY="3.5" orient="auto">
      <polygon points="0 0, 10 3.5, 0 7" fill="#6b7280" />
    </marker>
  </defs>
  
  <!-- Title -->
  <text x="400" y="30" class="title" style="font-size: 20px;">Unstructured RAG System Architecture</text>
  
  <!-- Documents -->
  <rect x="50" y="80" width="150" height="80" class="box" />
  <text x="125" y="120" class="title">Unstructured Data</text>
  <text x="125" y="145" class="small-label">PDF, DOCX, HTML, etc.</text>
  
  <!-- Data Processing Box -->
  <rect x="50" y="220" width="700" height="120" class="process-box" />
  <text x="400" y="245" class="title">Data Processing Pipeline</text>
  
  <!-- Processing Steps -->
  <rect x="80" y="270" width="100" height="50" class="box" />
  <text x="130" y="295" class="label">Ingestion</text>
  
  <rect x="200" y="270" width="100" height="50" class="box" />
  <text x="250" y="295" class="label">Extraction</text>
  
  <rect x="320" y="270" width="100" height="50" class="box" />
  <text x="370" y="295" class="label">Chunking</text>
  
  <rect x="440" y="270" width="100" height="50" class="box" />
  <text x="490" y="295" class="label">Embedding</text>
  
  <rect x="560" y="270" width="160" height="50" class="box" />
  <text x="640" y="295" class="label">Vector Storage</text>
  
  <!-- Vector Database -->
  <rect x="300" y="390" width="200" height="80" class="database" />
  <text x="400" y="430" class="title">Milvus Vector DB</text>
  
  <!-- LLM -->
  <rect x="600" y="390" width="200" height="80" class="llm" />
  <text x="700" y="430" class="title">DeepSeek-R1-Zero</text>
  
  <!-- User Query -->
  <rect x="50" y="390" width="200" height="80" class="box" />
  <text x="150" y="430" class="title">User Query</text>

  <!-- Arrows -->
  <!-- Document to Processing Pipeline -->
  <path d="M 125 160 L 125 220" class="arrow" />
  
  <!-- Between Processing Steps -->
  <path d="M 180 295 L 200 295" class="arrow" />
  <path d="M 300 295 L 320 295" class="arrow" />
  <path d="M 420 295 L 440 295" class="arrow" />
  <path d="M 540 295 L 560 295" class="arrow" />
  
  <!-- Processing Pipeline to Vector Database -->
  <path d="M 640 320 L 640 370 L 400 370 L 400 390" class="arrow" />
  
  <!-- User Query to Vector Database -->
  <path d="M 250 430 L 300 430" class="arrow" />
  
  <!-- Vector Database to LLM -->
  <path d="M 500 430 L 600 430" class="arrow" />
  
  <!-- LLM to User (response) -->
  <path d="M 700 390 L 700 350 L 150 350 L 150 390" class="arrow" stroke-dasharray="5,5" />
</svg>
